<svg width="24" height="24" viewBox="0 0 24 24" fill="none" xmlns="http://www.w3.org/2000/svg">
<path d="M11 19.425V12.575L5 9.1V15.95L11 19.425ZM13 19.425L19 15.95V9.1L13 12.575V19.425ZM11 21.725L4 17.7C3.68333 17.5167 3.4375 17.275 3.2625 16.975C3.0875 16.675 3 16.3417 3 15.975V8.025C3 7.65833 3.0875 7.325 3.2625 7.025C3.4375 6.725 3.68333 6.48333 4 6.3L11 2.275C11.3167 2.09167 11.65 2 12 2C12.35 2 12.6833 2.09167 13 2.275L20 6.3C20.3167 6.48333 20.5625 6.725 20.7375 7.025C20.9125 7.325 21 7.65833 21 8.025V15.975C21 16.3417 20.9125 16.675 20.7375 16.975C20.5625 17.275 20.3167 17.5167 20 17.7L13 21.725C12.6833 21.9083 12.35 22 12 22C11.65 22 11.3167 21.9083 11 21.725ZM16 8.525L17.925 7.425L12 4L10.05 5.125L16 8.525ZM12 10.85L13.95 9.725L8.025 6.3L6.075 7.425L12 10.85Z" fill="#A3A3A3"/>
<g clip-path="url(#clip0_17_962)">
<path d="M3.66669 19.6666H4.33335V18.3333H5.66669V17.6666H4.33335V16.3333H3.66669V17.6666H2.33335V18.3333H3.66669V19.6666ZM4.00002 21.3333C3.53891 21.3333 3.10558 21.2458 2.70002 21.0708C2.29446 20.8958 1.94169 20.6583 1.64169 20.3583C1.34169 20.0583 1.10419 19.7055 0.929187 19.3C0.754187 18.8944 0.666687 18.4611 0.666687 18C0.666687 17.5388 0.754187 17.1055 0.929187 16.7C1.10419 16.2944 1.34169 15.9416 1.64169 15.6416C1.94169 15.3416 2.29446 15.1041 2.70002 14.9291C3.10558 14.7541 3.53891 14.6666 4.00002 14.6666C4.46113 14.6666 4.89446 14.7541 5.30002 14.9291C5.70558 15.1041 6.05835 15.3416 6.35835 15.6416C6.65835 15.9416 6.89585 16.2944 7.07085 16.7C7.24585 17.1055 7.33335 17.5388 7.33335 18C7.33335 18.4611 7.24585 18.8944 7.07085 19.3C6.89585 19.7055 6.65835 20.0583 6.35835 20.3583C6.05835 20.6583 5.70558 20.8958 5.30002 21.0708C4.89446 21.2458 4.46113 21.3333 4.00002 21.3333ZM4.00002 20.6666C4.74446 20.6666 5.37502 20.4083 5.89169 19.8916C6.40835 19.375 6.66669 18.7444 6.66669 18C6.66669 17.2555 6.40835 16.625 5.89169 16.1083C5.37502 15.5916 4.74446 15.3333 4.00002 15.3333C3.25558 15.3333 2.62502 15.5916 2.10835 16.1083C1.59169 16.625 1.33335 17.2555 1.33335 18C1.33335 18.7444 1.59169 19.375 2.10835 19.8916C2.62502 20.4083 3.25558 20.6666 4.00002 20.6666Z" fill="#010133" fill-opacity="0.4"/>
</g>
<defs>
<clipPath id="clip0_17_962">
<rect width="8" height="8" fill="white" transform="translate(0 14)"/>
</clipPath>
</defs>
</svg>
