<svg width="24" height="24" viewBox="0 0 24 24" fill="none" xmlns="http://www.w3.org/2000/svg">
<path d="M10.8 20.885V14.615L12.34 10.215C12.4317 10.0133 12.5646 9.84375 12.7387 9.70625C12.9129 9.56875 13.1283 9.5 13.385 9.5H21.415C21.6717 9.5 21.8917 9.56875 22.075 9.70625C22.2583 9.84375 22.3867 10.0133 22.46 10.215L24 14.615V20.885C24 21.0867 23.9312 21.2563 23.7938 21.3937C23.6562 21.5312 23.4867 21.6 23.285 21.6H22.515C22.3133 21.6 22.1437 21.5312 22.0063 21.3937C21.8687 21.2563 21.8 21.0867 21.8 20.885V19.95H13V20.885C13 21.0867 12.9312 21.2563 12.7937 21.3937C12.6562 21.5312 12.4867 21.6 12.285 21.6H11.515C11.3133 21.6 11.1438 21.5312 11.0063 21.3937C10.8687 21.2563 10.8 21.0867 10.8 20.885ZM13 13.35H21.8L21.03 11.15H13.77L13 13.35ZM14.1 17.75C14.4117 17.75 14.6729 17.6446 14.8837 17.4338C15.0946 17.2229 15.2 16.9617 15.2 16.65C15.2 16.3383 15.0946 16.0771 14.8837 15.8663C14.6729 15.6554 14.4117 15.55 14.1 15.55C13.7883 15.55 13.5271 15.6554 13.3162 15.8663C13.1054 16.0771 13 16.3383 13 16.65C13 16.9617 13.1054 17.2229 13.3162 17.4338C13.5271 17.6446 13.7883 17.75 14.1 17.75ZM20.7 17.75C21.0117 17.75 21.2729 17.6446 21.4837 17.4338C21.6946 17.2229 21.8 16.9617 21.8 16.65C21.8 16.3383 21.6946 16.0771 21.4837 15.8663C21.2729 15.6554 21.0117 15.55 20.7 15.55C20.3883 15.55 20.1271 15.6554 19.9163 15.8663C19.7054 16.0771 19.6 16.3383 19.6 16.65C19.6 16.9617 19.7054 17.2229 19.9163 17.4338C20.1271 17.6446 20.3883 17.75 20.7 17.75ZM4.2 21.6V20.5L5.3 19.4C4.38333 19.4 3.60417 19.0792 2.9625 18.4375C2.32083 17.7958 2 17.0167 2 16.1V7.3C2 6.09 2.54083 5.2375 3.6225 4.7425C4.70417 4.2475 6.54667 4 9.15 4C11.8633 4 13.7333 4.23833 14.76 4.715C15.7867 5.19167 16.3 6.05333 16.3 7.3V8.4H14.1V7.3H4.2V13.9H9.7V21.6H4.2ZM5.3 17.2C5.61167 17.2 5.87292 17.0946 6.08375 16.8837C6.29458 16.6729 6.4 16.4117 6.4 16.1C6.4 15.7883 6.29458 15.5271 6.08375 15.3162C5.87292 15.1054 5.61167 15 5.3 15C4.98833 15 4.72708 15.1054 4.51625 15.3162C4.30542 15.5271 4.2 15.7883 4.2 16.1C4.2 16.4117 4.30542 16.6729 4.51625 16.8837C4.72708 17.0946 4.98833 17.2 5.3 17.2ZM12.45 18.3H22.35V15H12.45V18.3Z" fill="#A3A3A3"/>
<g clip-path="url(#clip0_17_964)">
<path d="M3.66669 21.6666H4.33335V20.3333H5.66669V19.6666H4.33335V18.3333H3.66669V19.6666H2.33335V20.3333H3.66669V21.6666ZM4.00002 23.3333C3.53891 23.3333 3.10558 23.2458 2.70002 23.0708C2.29446 22.8958 1.94169 22.6583 1.64169 22.3583C1.34169 22.0583 1.10419 21.7055 0.929187 21.3C0.754187 20.8944 0.666687 20.4611 0.666687 20C0.666687 19.5388 0.754187 19.1055 0.929187 18.7C1.10419 18.2944 1.34169 17.9416 1.64169 17.6416C1.94169 17.3416 2.29446 17.1041 2.70002 16.9291C3.10558 16.7541 3.53891 16.6666 4.00002 16.6666C4.46113 16.6666 4.89446 16.7541 5.30002 16.9291C5.70558 17.1041 6.05835 17.3416 6.35835 17.6416C6.65835 17.9416 6.89585 18.2944 7.07085 18.7C7.24585 19.1055 7.33335 19.5388 7.33335 20C7.33335 20.4611 7.24585 20.8944 7.07085 21.3C6.89585 21.7055 6.65835 22.0583 6.35835 22.3583C6.05835 22.6583 5.70558 22.8958 5.30002 23.0708C4.89446 23.2458 4.46113 23.3333 4.00002 23.3333ZM4.00002 22.6666C4.74446 22.6666 5.37502 22.4083 5.89169 21.8916C6.40835 21.375 6.66669 20.7444 6.66669 20C6.66669 19.2555 6.40835 18.625 5.89169 18.1083C5.37502 17.5916 4.74446 17.3333 4.00002 17.3333C3.25558 17.3333 2.62502 17.5916 2.10835 18.1083C1.59169 18.625 1.33335 19.2555 1.33335 20C1.33335 20.7444 1.59169 21.375 2.10835 21.8916C2.62502 22.4083 3.25558 22.6666 4.00002 22.6666Z" fill="#010133" fill-opacity="0.4"/>
</g>
<defs>
<clipPath id="clip0_17_964">
<rect width="8" height="8" fill="white" transform="translate(0 16)"/>
</clipPath>
</defs>
</svg>
