<?xml version="1.0" standalone="no"?>
<!DOCTYPE svg PUBLIC "-//W3C//DTD SVG 20010904//EN"
 "http://www.w3.org/TR/2001/REC-SVG-20010904/DTD/svg10.dtd">
<svg version="1.0" xmlns="http://www.w3.org/2000/svg"
 width="696.000000pt" height="289.000000pt" viewBox="0 0 696.000000 289.000000"
 preserveAspectRatio="xMidYMid meet">

<g transform="translate(0.000000,289.000000) scale(0.100000,-0.100000)"
fill="#000000" stroke="none">
<path d="M3485 2164 c-206 -12 -414 -53 -549 -108 -47 -19 -132 -65 -189 -103
-170 -112 -339 -187 -522 -229 -90 -20 -129 -45 -154 -98 -25 -50 -26 -70 -6
-167 15 -80 89 -497 100 -566 l7 -43 137 0 138 0 6 58 c14 159 139 317 295
376 26 9 77 20 114 23 242 21 453 -146 492 -388 l10 -69 726 0 726 0 11 69
c59 382 531 525 788 239 68 -76 101 -149 114 -252 l6 -51 97 -3 c85 -2 97 -1
102 15 3 10 19 83 36 163 17 80 40 189 51 243 28 131 22 175 -35 231 -47 48
-74 57 -304 106 -168 35 -506 85 -679 99 l-122 10 -88 58 c-333 221 -614 352
-803 373 -97 10 -415 19 -505 14z m-51 -241 c-18 -76 -37 -149 -42 -163 l-10
-25 -298 9 c-165 5 -301 10 -303 12 -8 7 29 31 165 109 227 130 382 193 480
194 l41 1 -33 -137z m482 118 c45 -6 114 -18 155 -27 97 -24 293 -123 394
-200 87 -67 135 -114 117 -114 -88 0 -1037 32 -1040 35 -3 2 12 74 33 160 l38
155 111 0 c61 0 147 -4 192 -9z"/>
<path d="M420 1900 l0 -100 903 0 903 0 69 34 c69 33 255 151 255 161 0 3
-479 5 -1065 5 l-1065 0 0 -100z"/>
<path d="M837 1583 c-4 -3 -7 -51 -7 -105 l0 -98 541 0 541 0 -8 33 c-3 17
-12 64 -19 102 l-11 70 -515 3 c-284 1 -519 -1 -522 -5z"/>
<path d="M2813 1235 c-78 -22 -125 -49 -183 -105 -88 -86 -132 -219 -110 -335
34 -176 151 -294 324 -326 158 -29 338 66 412 217 33 67 44 186 25 269 -43
194 -278 334 -468 280z m202 -229 c70 -53 93 -150 56 -232 -32 -70 -105 -111
-185 -102 -58 7 -94 26 -130 71 -28 36 -31 45 -31 112 0 67 3 77 30 111 47 57
89 76 161 72 49 -3 69 -10 99 -32z"/>
<path d="M5203 1240 c-115 -23 -219 -105 -273 -214 -115 -234 28 -511 286
-557 265 -46 497 201 440 468 -31 151 -136 257 -293 298 -62 16 -96 17 -160 5z
m144 -211 c34 -12 80 -55 97 -89 36 -70 20 -163 -36 -217 -114 -110 -301 -41
-316 117 -13 134 127 238 255 189z"/>
<path d="M1287 1223 c-4 -3 -7 -48 -7 -100 l0 -93 346 0 347 0 -7 33 c-4 17
-12 62 -18 100 l-11 67 -322 0 c-177 0 -325 -3 -328 -7z"/>
</g>
</svg>
