<svg width="22" height="18" viewBox="0 0 22 18" fill="none" xmlns="http://www.w3.org/2000/svg">
<path d="M8.8 16.885V10.615L10.34 6.215C10.4317 6.01333 10.5646 5.84375 10.7387 5.70625C10.9129 5.56875 11.1283 5.5 11.385 5.5H19.415C19.6717 5.5 19.8917 5.56875 20.075 5.70625C20.2583 5.84375 20.3867 6.01333 20.46 6.215L22 10.615V16.885C22 17.0867 21.9312 17.2563 21.7938 17.3937C21.6562 17.5312 21.4867 17.6 21.285 17.6H20.515C20.3133 17.6 20.1437 17.5312 20.0063 17.3937C19.8687 17.2563 19.8 17.0867 19.8 16.885V15.95H11V16.885C11 17.0867 10.9312 17.2563 10.7937 17.3937C10.6562 17.5312 10.4867 17.6 10.285 17.6H9.515C9.31333 17.6 9.14375 17.5312 9.00625 17.3937C8.86875 17.2563 8.8 17.0867 8.8 16.885ZM11 9.35H19.8L19.03 7.15H11.77L11 9.35ZM12.1 13.75C12.4117 13.75 12.6729 13.6446 12.8837 13.4338C13.0946 13.2229 13.2 12.9617 13.2 12.65C13.2 12.3383 13.0946 12.0771 12.8837 11.8663C12.6729 11.6554 12.4117 11.55 12.1 11.55C11.7883 11.55 11.5271 11.6554 11.3162 11.8663C11.1054 12.0771 11 12.3383 11 12.65C11 12.9617 11.1054 13.2229 11.3162 13.4338C11.5271 13.6446 11.7883 13.75 12.1 13.75ZM18.7 13.75C19.0117 13.75 19.2729 13.6446 19.4837 13.4338C19.6946 13.2229 19.8 12.9617 19.8 12.65C19.8 12.3383 19.6946 12.0771 19.4837 11.8663C19.2729 11.6554 19.0117 11.55 18.7 11.55C18.3883 11.55 18.1271 11.6554 17.9163 11.8663C17.7054 12.0771 17.6 12.3383 17.6 12.65C17.6 12.9617 17.7054 13.2229 17.9163 13.4338C18.1271 13.6446 18.3883 13.75 18.7 13.75ZM2.2 17.6V16.5L3.3 15.4C2.38333 15.4 1.60417 15.0792 0.9625 14.4375C0.320833 13.7958 0 13.0167 0 12.1V3.3C0 2.09 0.540833 1.2375 1.6225 0.7425C2.70417 0.2475 4.54667 0 7.15 0C9.86333 0 11.7333 0.238333 12.76 0.715C13.7867 1.19167 14.3 2.05333 14.3 3.3V4.4H12.1V3.3H2.2V9.9H7.7V17.6H2.2ZM3.3 13.2C3.61167 13.2 3.87292 13.0946 4.08375 12.8837C4.29458 12.6729 4.4 12.4117 4.4 12.1C4.4 11.7883 4.29458 11.5271 4.08375 11.3162C3.87292 11.1054 3.61167 11 3.3 11C2.98833 11 2.72708 11.1054 2.51625 11.3162C2.30542 11.5271 2.2 11.7883 2.2 12.1C2.2 12.4117 2.30542 12.6729 2.51625 12.8837C2.72708 13.0946 2.98833 13.2 3.3 13.2ZM10.45 14.3H20.35V11H10.45V14.3Z" fill="#E8EAED"/>
</svg>
